<svg xmlns="http://www.w3.org/2000/svg" width="15" height="16" viewBox="0 0 15 16" fill="#000">
  <mask id="path-1-inside-1_24_1118" fill="white">
    <path d="M13.8223 6.93263C14.1621 8.41163 14.012 9.961 13.3947 11.3473C12.7775 12.7336 11.7264 13.8818 10.3999 14.6189C9.07338 15.3559 7.54327 15.642 6.04007 15.4339C4.53688 15.2258 3.14202 14.5348 2.06564 13.4651C0.989255 12.3954 0.289651 11.0048 0.0722222 9.50294C-0.145206 8.00107 0.131318 6.46921 0.860135 5.13815C1.58895 3.80708 2.73059 2.74891 4.11305 2.12305C5.49551 1.49719 7.04392 1.33753 8.525 1.66814L8.24244 2.934C7.03578 2.66465 5.77427 2.79472 4.64797 3.30462C3.52166 3.81452 2.59156 4.67662 1.99778 5.76106C1.404 6.84549 1.17872 8.09351 1.35586 9.31711C1.533 10.5407 2.10297 11.6736 2.97992 12.5451C3.85686 13.4166 4.99327 13.9796 6.21794 14.1491C7.44261 14.3186 8.68921 14.0856 9.76994 13.4851C10.8507 12.8846 11.707 11.9492 12.2099 10.8197C12.7128 9.69029 12.835 8.428 12.5582 7.22304L13.8223 6.93263Z"/>
  </mask>
  <path d="M13.8223 6.93263C14.1621 8.41163 14.012 9.961 13.3947 11.3473C12.7775 12.7336 11.7264 13.8818 10.3999 14.6189C9.07338 15.3559 7.54327 15.642 6.04007 15.4339C4.53688 15.2258 3.14202 14.5348 2.06564 13.4651C0.989255 12.3954 0.289651 11.0048 0.0722222 9.50294C-0.145206 8.00107 0.131318 6.46921 0.860135 5.13815C1.58895 3.80708 2.73059 2.74891 4.11305 2.12305C5.49551 1.49719 7.04392 1.33753 8.525 1.66814L8.24244 2.934C7.03578 2.66465 5.77427 2.79472 4.64797 3.30462C3.52166 3.81452 2.59156 4.67662 1.99778 5.76106C1.404 6.84549 1.17872 8.09351 1.35586 9.31711C1.533 10.5407 2.10297 11.6736 2.97992 12.5451C3.85686 13.4166 4.99327 13.9796 6.21794 14.1491C7.44261 14.3186 8.68921 14.0856 9.76994 13.4851C10.8507 12.8846 11.707 11.9492 12.2099 10.8197C12.7128 9.69029 12.835 8.428 12.5582 7.22304L13.8223 6.93263Z" fill="#000" stroke="#000" stroke-width="2" stroke-linejoin="round" mask="url(#path-1-inside-1_24_1118)"/>
  <path d="M5.99125 7C5.99125 7.55228 5.54354 8 4.99125 8C4.43897 8 3.99125 7.55228 3.99125 7C3.99125 6.44772 4.43897 6 4.99125 6C5.54354 6 5.99125 6.44772 5.99125 7Z" fill="#000"/>
  <path d="M10 7C10 7.55228 9.55228 8 9 8C8.44772 8 8 7.55228 8 7C8 6.44772 8.44772 6 9 6C9.55228 6 10 6.44772 10 7Z" fill="#000"/>
  <path d="M7 12.5C8.75693 12.5 10.2493 11.6505 10.7866 10.4692C11.0153 9.9665 10.5523 9.5 10 9.5H4C3.44772 9.5 2.98466 9.9665 3.21335 10.4692C3.75071 11.6505 5.24307 12.5 7 12.5Z" fill="#000"/>
  <line x1="10" y1="3" x2="15" y2="3" stroke="#000"/>
  <line x1="12.5" y1="0.5" x2="12.5" y2="5.5" stroke="#000"/>
</svg>