<svg width="16" height="20" viewBox="0 0 16 20" fill="none" xmlns="http://www.w3.org/2000/svg">
<path d="M0.116699 16.6475V4.271C0.116699 2.74365 0.996582 1.96338 2.39941 1.87207C5.31299 1.69775 7.86963 1.27441 10.1689 0.743164C11.8291 0.353027 12.792 1.1748 12.792 2.89307V15.0371C12.792 16.498 12.3354 17.1953 11.0986 17.5522C8.07715 18.3989 5.4541 18.7227 2.66504 18.8638C1.04639 18.9634 0.116699 18.1499 0.116699 16.6475ZM6.96484 19.6357C8.38428 19.4116 9.87012 19.1045 11.4224 18.6812C13.1157 18.1914 13.9873 17.1455 13.9873 15.0371V2.94287C13.9873 2.66895 13.9624 2.40332 13.9209 2.09619C15.0166 2.37012 15.5894 3.2251 15.5894 4.61963V16.9214C15.5894 18.7227 14.6846 19.6357 12.9082 19.6357H6.96484ZM1.67725 16.3818C1.67725 17.0044 2.07568 17.3447 2.73145 17.3115C5.4458 17.1704 7.96094 16.8633 10.418 16.1577C11.0239 16 11.2397 15.6763 11.2397 14.979V3.19189C11.2397 2.51123 10.8247 2.146 10.1357 2.30371C7.86133 2.82666 5.34619 3.25 2.63184 3.39941C2.06738 3.43262 1.67725 3.68994 1.67725 4.3125V16.3818ZM3.47852 6.36279C3.18799 6.37939 2.98047 6.16357 2.98047 5.88965C2.98047 5.63232 3.13818 5.4165 3.47021 5.3916C5.75293 5.24219 7.5791 4.91846 9.34717 4.52002C9.7207 4.43701 9.93652 4.67773 9.93652 4.94336C9.93652 5.18408 9.83691 5.3833 9.44678 5.47461C7.5874 5.88965 5.76123 6.21338 3.47852 6.36279ZM3.47852 8.93604C3.18799 8.95264 2.98047 8.74512 2.98047 8.46289C2.98047 8.20557 3.13818 7.98975 3.47021 7.96484C5.75293 7.81543 7.5791 7.4917 9.34717 7.10156C9.7207 7.01855 9.93652 7.25098 9.93652 7.5249C9.93652 7.75732 9.83691 7.96484 9.44678 8.05615C7.5874 8.46289 5.76123 8.78662 3.47852 8.93604ZM3.47852 11.5176C3.18799 11.5342 2.98047 11.3184 2.98047 11.0444C2.98047 10.7871 3.13818 10.5713 3.47021 10.5464C5.75293 10.3887 7.5791 10.0732 9.34717 9.6748C9.7207 9.5918 9.93652 9.83252 9.93652 10.0981C9.93652 10.3389 9.83691 10.5381 9.44678 10.6294C7.5874 11.0444 5.76123 11.3599 3.47852 11.5176ZM3.47852 14.0825C3.18799 14.0991 2.98047 13.8916 2.98047 13.6094C2.98047 13.3521 3.13818 13.1362 3.47021 13.1113C4.77344 13.0366 5.62842 12.9204 6.38379 12.7959C6.78223 12.7295 6.98145 12.9785 6.98145 13.2358C6.98145 13.46 6.83203 13.6924 6.5498 13.7422C5.68652 13.8833 4.80664 14.0078 3.47852 14.0825Z" fill="#0066FF"/>
</svg>
